<?xml version="1.0" encoding="utf-8"?>
<!-- Generator: Adobe Illustrator 24.2.3, SVG Export Plug-In . SVG Version: 6.00 Build 0)  -->
<svg version="1.1" id="Capa_1" xmlns="http://www.w3.org/2000/svg" xmlns:xlink="http://www.w3.org/1999/xlink" x="0px" y="0px"
	 viewBox="0 0 600 178.02" style="enable-background:new 0 0 600 178.02;" xml:space="preserve">
<style type="text/css">
	.st0{fill:#1DBCA9;}
</style>
<g>
	<path d="M53.47,17.9h96.47l-6.62,17.18h-28.39L95.09,86.84H66.17l19.85-51.76H66.71L53.47,17.9z"/>
	<path d="M154.64,17.9h41.19l-19.96,51.86h30.95l19.96-51.86h28.92l-26.47,68.94h-88.79l22.52-58.69L154.64,17.9z"/>
	<path d="M344.17,62.93h-10.24l6.62,23.9h-29.03l-7.04-23.9H284.3l-9.18,23.9H246.2l22.52-58.69L260.4,17.9h101.06L344.17,62.93z
		 M290.81,45.86h30.95l4.16-10.78h-30.95L290.81,45.86z"/>
	<path d="M374.37,28.14l-8.32-10.24H467.1l-8.54,22.3l-20.28,12.27h15.47l-13.23,34.36h-88.68L374.37,28.14z M387.28,69.76h30.84
		l3.42-8.86H390.7L387.28,69.76z M412.47,43.83l14.62-8.75h-26.47l-3.31,8.75H412.47z"/>
	<path d="M480.12,28.14L471.8,17.9h101.06l-26.47,68.94h-88.79L480.12,28.14z M506.37,35.08l-13.34,34.68h30.95l13.34-34.68H506.37z
		"/>
</g>
<g>
	<path class="st0" d="M22.12,157.71l20.72-54.01l-7.66-9.43h92.89l-6.09,15.81H67L54.72,142H83.1l3.14-8.15H72.89l6.09-15.71h39.97
		l-15.22,39.57H22.12z"/>
	<path class="st0" d="M201.03,157.71h-26.61l7.76-20.33H153.7l-7.76,20.33h-26.61l20.72-54.01l-7.66-9.43h92.99L201.03,157.71z
		 M159.79,121.67h28.48l4.42-11.59h-28.48L159.79,121.67z"/>
	<path class="st0" d="M229.61,94.27h126.18l-24.35,63.43h-26.61l18.36-47.72h-17.58l-18.36,47.72h-26.61L279,109.99h-17.48
		l-18.36,47.72h-26.61l20.72-54.01L229.61,94.27z"/>
	<path class="st0" d="M388.88,118.14h50.87l-6.09,15.71h-50.87l-3.14,8.15h50.87l-5.99,15.71h-77.48l20.72-54.01l-7.66-9.43h88.77
		l-6.09,15.81h-50.87L388.88,118.14z"/>
	<path class="st0" d="M530.28,135.71h-9.43l6.09,22h-26.71l-6.48-22h-18.56l-8.44,22h-26.61l20.72-54.01l-7.66-9.43h92.99
		L530.28,135.71z M481.18,120h28.48l3.83-9.92h-28.48L481.18,120z"/>
</g>
</svg>
